<?xml version="1.0" standalone="no"?>
<!DOCTYPE svg PUBLIC "-//W3C//DTD SVG 20010904//EN"
 "http://www.w3.org/TR/2001/REC-SVG-20010904/DTD/svg10.dtd">
<svg version="1.0" xmlns="http://www.w3.org/2000/svg"
 width="941.000000pt" height="941.000000pt" viewBox="0 0 941.000000 941.000000"
 preserveAspectRatio="xMidYMid meet">
<metadata>
Created by potrace 1.11, written by Peter Selinger 2001-2013
</metadata>
<g transform="translate(0.000000,941.000000) scale(0.100000,-0.100000)"
fill="#000000" stroke="none">
<path d="M3631 9335 c-91 -26 -152 -65 -247 -160 -179 -179 -387 -537 -562
-971 -58 -143 -118 -314 -141 -400 -11 -41 -12 -42 -74 -53 -34 -7 -145 -32
-247 -57 -446 -109 -731 -238 -824 -373 -59 -86 -44 -192 39 -275 131 -131
461 -260 926 -361 l75 -16 -4 -143 c-5 -153 7 -292 38 -447 18 -86 57 -235 75
-281 7 -17 -25 -18 -590 -18 -563 0 -596 -1 -591 -17 3 -10 116 -286 250 -613
l243 -594 -77 -44 c-288 -163 -557 -463 -736 -822 -150 -302 -267 -713 -338
-1195 -34 -231 -44 -351 -58 -687 -16 -409 3 -624 77 -845 73 -217 205 -414
375 -557 200 -169 414 -265 708 -318 l127 -23 2640 0 2640 0 127 23 c229 41
416 112 572 216 360 241 547 579 587 1064 20 238 -10 790 -62 1147 -42 292
-127 662 -201 875 -130 375 -364 733 -618 945 -66 55 -246 179 -274 188 -5 2
93 283 217 626 125 342 227 624 227 626 0 3 -268 5 -596 5 -539 0 -596 2 -590
16 71 186 124 536 113 756 l-6 116 77 17 c373 81 703 196 844 293 114 79 162
154 156 243 -8 104 -88 185 -274 278 -168 83 -547 198 -831 252 -61 11 -63 13
-73 50 -19 69 -97 292 -138 394 -172 429 -387 801 -566 981 -138 138 -243 181
-416 172 -105 -6 -188 -33 -337 -110 -62 -32 -164 -84 -225 -116 -160 -82
-242 -107 -353 -107 -111 0 -193 25 -352 107 -62 32 -164 84 -225 116 -161 83
-232 104 -353 108 -68 3 -117 -1 -154 -11z m264 -2855 c179 -13 407 -43 611
-80 89 -17 183 -30 209 -30 26 0 120 13 209 30 435 80 819 106 1166 80 225
-17 235 -24 218 -139 -9 -64 -15 -76 -50 -109 -33 -31 -46 -58 -84 -167 -53
-153 -137 -330 -191 -400 -45 -58 -140 -128 -203 -149 -194 -65 -443 -55 -600
24 -129 65 -200 162 -270 371 -60 180 -102 229 -195 229 -93 0 -137 -51 -196
-230 -84 -252 -186 -361 -390 -416 -91 -24 -277 -24 -398 0 -81 16 -105 26
-170 70 -42 28 -93 73 -114 101 -54 71 -139 248 -191 400 -39 112 -50 135 -84
165 -35 32 -40 42 -50 109 -13 89 -6 106 48 121 98 26 483 37 725 20z m-245
-2315 l350 -175 266 -356 266 -356 -264 -1229 c-144 -675 -265 -1225 -268
-1223 -6 7 -708 3514 -703 3514 2 0 161 -79 353 -175z m2136 -1579 c-193 -965
-353 -1757 -356 -1760 -3 -2 -124 548 -269 1224 l-263 1230 266 355 266 355
348 174 c191 96 350 175 353 175 3 1 -152 -788 -345 -1753z"/>
</g>
</svg>
